<mxfile host="app.diagrams.net" modified="2021-03-22T02:09:10.873Z" agent="5.0 (Macintosh; Intel Mac OS X 10_15_6) AppleWebKit/537.36 (KHTML, like Gecko) Chrome/88.0.4324.192 Safari/537.36" etag="ndRBBBapSZ8j9bL5Hhrk" version="14.4.9" type="github">
  <diagram name="Page-1" id="42789a77-a242-8287-6e28-9cd8cfd52e62">
    <mxGraphModel dx="946" dy="613" grid="1" gridSize="10" guides="1" tooltips="1" connect="1" arrows="1" fold="1" page="1" pageScale="1" pageWidth="1100" pageHeight="850" background="#ffffff" math="0" shadow="0">
      <root>
        <mxCell id="0" />
        <mxCell id="1" parent="0" />
        <mxCell id="dSNGjbybaEm5kWZrl-bL-1" value="test" style="line;strokeWidth=2;direction=south;html=1;fontStyle=1;dashed=1;dashPattern=1 2;fontSize=16;" vertex="1" parent="1">
          <mxGeometry x="480" y="240" width="10" height="570" as="geometry" />
        </mxCell>
        <mxCell id="dSNGjbybaEm5kWZrl-bL-3" value="" style="ellipse;whiteSpace=wrap;html=1;aspect=fixed;strokeColor=#b85450;fillColor=#f8cecc;labelPosition=right;verticalLabelPosition=middle;align=left;verticalAlign=middle;" vertex="1" parent="1">
          <mxGeometry x="474" y="480" width="20" height="20" as="geometry" />
        </mxCell>
        <mxCell id="dSNGjbybaEm5kWZrl-bL-4" value="" style="ellipse;whiteSpace=wrap;html=1;aspect=fixed;strokeColor=#b85450;fillColor=#f8cecc;" vertex="1" parent="1">
          <mxGeometry x="474" y="730" width="20" height="20" as="geometry" />
        </mxCell>
        <mxCell id="dSNGjbybaEm5kWZrl-bL-12" value="dev" style="line;strokeWidth=2;direction=south;html=1;fontStyle=1;dashed=1;dashPattern=1 2;fontSize=16;" vertex="1" parent="1">
          <mxGeometry x="606" y="240" width="10" height="570" as="geometry" />
        </mxCell>
        <mxCell id="dSNGjbybaEm5kWZrl-bL-15" value="" style="ellipse;whiteSpace=wrap;html=1;aspect=fixed;strokeColor=#82b366;fillColor=#d5e8d4;" vertex="1" parent="1">
          <mxGeometry x="600" y="730" width="20" height="20" as="geometry" />
        </mxCell>
        <mxCell id="dSNGjbybaEm5kWZrl-bL-16" value="pre" style="line;strokeWidth=2;direction=south;html=1;fontStyle=1;dashed=1;fontSize=16;" vertex="1" parent="1">
          <mxGeometry x="366" y="240" width="10" height="570" as="geometry" />
        </mxCell>
        <mxCell id="dSNGjbybaEm5kWZrl-bL-18" value="" style="ellipse;whiteSpace=wrap;html=1;aspect=fixed;strokeColor=#d79b00;fillColor=#ffe6cc;labelPosition=right;verticalLabelPosition=middle;align=left;verticalAlign=middle;" vertex="1" parent="1">
          <mxGeometry x="360" y="480" width="20" height="20" as="geometry" />
        </mxCell>
        <mxCell id="dSNGjbybaEm5kWZrl-bL-19" value="" style="ellipse;whiteSpace=wrap;html=1;aspect=fixed;strokeColor=#d79b00;fillColor=#ffe6cc;" vertex="1" parent="1">
          <mxGeometry x="360" y="730" width="20" height="20" as="geometry" />
        </mxCell>
        <mxCell id="dSNGjbybaEm5kWZrl-bL-20" value="master" style="line;strokeWidth=2;direction=south;html=1;fontStyle=1;dashed=1;dashPattern=1 2;fontSize=16;" vertex="1" parent="1">
          <mxGeometry x="240" y="240" width="10" height="570" as="geometry" />
        </mxCell>
        <mxCell id="dSNGjbybaEm5kWZrl-bL-44" style="edgeStyle=orthogonalEdgeStyle;rounded=0;orthogonalLoop=1;jettySize=auto;html=1;entryX=0;entryY=0.5;entryDx=0;entryDy=0;strokeWidth=2;" edge="1" parent="1" source="dSNGjbybaEm5kWZrl-bL-21" target="dSNGjbybaEm5kWZrl-bL-25">
          <mxGeometry relative="1" as="geometry" />
        </mxCell>
        <mxCell id="dSNGjbybaEm5kWZrl-bL-45" style="edgeStyle=orthogonalEdgeStyle;rounded=0;orthogonalLoop=1;jettySize=auto;html=1;entryX=0;entryY=0.5;entryDx=0;entryDy=0;strokeWidth=2;" edge="1" parent="1" source="dSNGjbybaEm5kWZrl-bL-21" target="dSNGjbybaEm5kWZrl-bL-29">
          <mxGeometry relative="1" as="geometry">
            <Array as="points">
              <mxPoint x="244" y="319" />
            </Array>
          </mxGeometry>
        </mxCell>
        <mxCell id="dSNGjbybaEm5kWZrl-bL-21" value="tag-V1" style="ellipse;whiteSpace=wrap;html=1;aspect=fixed;strokeColor=#82b366;fillColor=#33FF33;labelPosition=right;verticalLabelPosition=middle;align=left;verticalAlign=middle;" vertex="1" parent="1">
          <mxGeometry x="234" y="285" width="20" height="20" as="geometry" />
        </mxCell>
        <mxCell id="dSNGjbybaEm5kWZrl-bL-22" value="tag-V2" style="ellipse;whiteSpace=wrap;html=1;aspect=fixed;strokeColor=#82b366;fillColor=#33FF33;labelPosition=right;verticalLabelPosition=middle;align=left;verticalAlign=middle;" vertex="1" parent="1">
          <mxGeometry x="234" y="480" width="20" height="20" as="geometry" />
        </mxCell>
        <mxCell id="dSNGjbybaEm5kWZrl-bL-23" value="tag-V2" style="ellipse;whiteSpace=wrap;html=1;aspect=fixed;strokeColor=#82b366;fillColor=#33FF33;labelPosition=right;verticalLabelPosition=middle;align=left;verticalAlign=middle;" vertex="1" parent="1">
          <mxGeometry x="234" y="730" width="20" height="20" as="geometry" />
        </mxCell>
        <mxCell id="dSNGjbybaEm5kWZrl-bL-24" value="feature/a" style="line;strokeWidth=2;direction=south;html=1;fontStyle=1;dashed=1;dashPattern=1 2;fontSize=16;" vertex="1" parent="1">
          <mxGeometry x="696" y="240" width="10" height="570" as="geometry" />
        </mxCell>
        <mxCell id="dSNGjbybaEm5kWZrl-bL-25" value="" style="ellipse;whiteSpace=wrap;html=1;aspect=fixed;strokeColor=#d6b656;fillColor=#fff2cc;labelPosition=right;verticalLabelPosition=middle;align=left;verticalAlign=middle;" vertex="1" parent="1">
          <mxGeometry x="690" y="273" width="20" height="20" as="geometry" />
        </mxCell>
        <mxCell id="dSNGjbybaEm5kWZrl-bL-26" value="" style="ellipse;whiteSpace=wrap;html=1;aspect=fixed;strokeColor=#d6b656;fillColor=#fff2cc;labelPosition=right;verticalLabelPosition=middle;align=left;verticalAlign=middle;" vertex="1" parent="1">
          <mxGeometry x="690" y="468" width="20" height="20" as="geometry" />
        </mxCell>
        <mxCell id="dSNGjbybaEm5kWZrl-bL-27" value="" style="ellipse;whiteSpace=wrap;html=1;aspect=fixed;strokeColor=#d6b656;fillColor=#fff2cc;" vertex="1" parent="1">
          <mxGeometry x="690" y="718" width="20" height="20" as="geometry" />
        </mxCell>
        <mxCell id="dSNGjbybaEm5kWZrl-bL-28" value="&lt;font style=&quot;font-size: 16px&quot;&gt;feature/b&lt;/font&gt;" style="line;strokeWidth=2;direction=south;html=1;fontStyle=1;dashed=1;dashPattern=1 2;" vertex="1" parent="1">
          <mxGeometry x="806" y="240" width="10" height="570" as="geometry" />
        </mxCell>
        <mxCell id="dSNGjbybaEm5kWZrl-bL-29" value="" style="ellipse;whiteSpace=wrap;html=1;aspect=fixed;strokeColor=#9673a6;fillColor=#e1d5e7;labelPosition=right;verticalLabelPosition=middle;align=left;verticalAlign=middle;" vertex="1" parent="1">
          <mxGeometry x="800" y="309" width="20" height="20" as="geometry" />
        </mxCell>
        <mxCell id="dSNGjbybaEm5kWZrl-bL-30" value="" style="ellipse;whiteSpace=wrap;html=1;aspect=fixed;strokeColor=#9673a6;fillColor=#e1d5e7;labelPosition=right;verticalLabelPosition=middle;align=left;verticalAlign=middle;" vertex="1" parent="1">
          <mxGeometry x="800" y="504" width="20" height="20" as="geometry" />
        </mxCell>
        <mxCell id="dSNGjbybaEm5kWZrl-bL-31" value="" style="ellipse;whiteSpace=wrap;html=1;aspect=fixed;strokeColor=#9673a6;fillColor=#e1d5e7;" vertex="1" parent="1">
          <mxGeometry x="800" y="754" width="20" height="20" as="geometry" />
        </mxCell>
        <mxCell id="dSNGjbybaEm5kWZrl-bL-41" value="" style="ellipse;whiteSpace=wrap;html=1;aspect=fixed;strokeColor=#82b366;fillColor=#d5e8d4;labelPosition=right;verticalLabelPosition=middle;align=left;verticalAlign=middle;" vertex="1" parent="1">
          <mxGeometry x="601" y="530" width="20" height="20" as="geometry" />
        </mxCell>
        <mxCell id="dSNGjbybaEm5kWZrl-bL-42" value="" style="ellipse;whiteSpace=wrap;html=1;aspect=fixed;strokeColor=#b85450;fillColor=#f8cecc;labelPosition=right;verticalLabelPosition=middle;align=left;verticalAlign=middle;" vertex="1" parent="1">
          <mxGeometry x="475" y="660" width="20" height="20" as="geometry" />
        </mxCell>
        <mxCell id="dSNGjbybaEm5kWZrl-bL-47" value="hotfix" style="line;strokeWidth=2;direction=south;html=1;fontStyle=1;dashed=1;dashPattern=1 2;verticalAlign=bottom;labelPosition=center;verticalLabelPosition=top;align=center;fontSize=16;" vertex="1" parent="1">
          <mxGeometry x="295" y="250" width="10" height="570" as="geometry" />
        </mxCell>
        <mxCell id="dSNGjbybaEm5kWZrl-bL-48" value="" style="ellipse;whiteSpace=wrap;html=1;aspect=fixed;strokeColor=#d79b00;fillColor=#ffe6cc;labelPosition=right;verticalLabelPosition=middle;align=left;verticalAlign=middle;" vertex="1" parent="1">
          <mxGeometry x="290" y="390" width="20" height="20" as="geometry" />
        </mxCell>
      </root>
    </mxGraphModel>
  </diagram>
</mxfile>
